<svg width="25" height="40" viewBox="0 0 25 40" fill="none" xmlns="http://www.w3.org/2000/svg">
<path fill-rule="evenodd" clip-rule="evenodd" d="M8.60344 0.123139C7.97125 0.317279 7.40523 0.757514 7.05234 1.32947C6.8625 1.63712 6.67969 2.32548 6.67969 2.73244V3.09751L5.91797 3.14205C3.24984 3.29806 1.01195 5.05314 0.218125 7.61244L0 8.31556V21.5578V34.7999L0.218125 35.5031C0.845703 37.5264 2.42977 39.1105 4.45312 39.7381L5.15625 39.9562H12.1484H19.1406L19.8438 39.7381C22.4271 38.9367 24.2588 36.5795 24.288 34.0187C24.2959 33.3235 24.2765 33.2045 24.1115 32.9392C24.0095 32.7752 23.7835 32.5467 23.6094 32.4314C23.3455 32.2568 23.2059 32.2218 22.7734 32.2218C22.3409 32.2218 22.2013 32.2568 21.9375 32.4314C21.4794 32.7346 21.3002 33.0752 21.2067 33.8203C21.02 35.3093 20.3155 36.2577 19.0741 36.6908C18.6994 36.8216 18.2234 36.8312 12.1094 36.8312H5.54688L5.0975 36.6497C4.22922 36.2992 3.5718 35.6115 3.26539 34.7335C3.1325 34.3527 3.125 33.6488 3.125 21.5578C3.125 9.46665 3.1325 8.76283 3.26539 8.38204C3.5732 7.50001 4.2382 6.80681 5.0975 6.47228C5.49195 6.31869 5.74258 6.29173 7.14844 6.25173C8.65656 6.20884 8.76742 6.1954 9.0482 6.02079C9.21227 5.91884 9.44078 5.6929 9.55602 5.51884C9.75242 5.2222 9.76734 5.13681 9.79281 4.16126L9.82 3.12025H12.1484H14.4769L14.5041 4.16126C14.5295 5.13681 14.5445 5.2222 14.7409 5.51884C14.8561 5.6929 15.0846 5.91884 15.2487 6.02079C15.5295 6.1954 15.6403 6.20884 17.1484 6.25173C18.5543 6.29173 18.8049 6.31869 19.1994 6.47228C20.0343 6.79736 20.64 7.40751 20.9998 8.28603L21.1719 8.70619L21.2109 17.5343L21.25 26.3624L21.4354 26.6606C21.5373 26.8247 21.7634 27.0532 21.9375 27.1685C22.2004 27.3424 22.3414 27.3781 22.7677 27.3781C23.3831 27.3781 23.7634 27.1799 24.0873 26.6906L24.2969 26.3738V17.3447V8.31556L24.0788 7.61244C23.2849 5.05314 21.047 3.29806 18.3789 3.14205L17.6172 3.09751V2.73244C17.6172 1.99892 17.2766 1.21619 16.7468 0.731967C15.964 0.0165761 15.8226 -0.00576768 12.1147 0.000716696C9.56797 0.0050917 8.91336 0.0279042 8.60344 0.123139ZM8.59375 17.9765C7.60547 19.7428 6.75563 21.2974 6.70516 21.4314C6.55156 21.8392 6.58641 22.2139 6.81906 22.6594C6.99516 22.9965 7.11594 23.1173 7.45305 23.2934L7.86937 23.5109H9.57922C10.5196 23.5109 11.2888 23.5372 11.2886 23.5695C11.2884 23.6017 10.8138 24.9412 10.2339 26.5461C9.65406 28.1511 9.17969 29.5079 9.17969 29.5613C9.17969 29.8528 9.67656 30.005 10.0135 29.8167C10.2747 29.6707 17.6163 21.2428 17.7499 20.9356C17.9602 20.4522 17.7348 19.7672 17.2797 19.5068C17.1612 19.439 16.5005 19.3974 15.1109 19.3703L13.1125 19.3312L14.501 17.1046C15.2647 15.88 15.8915 14.8517 15.894 14.8195C15.8964 14.7873 14.6591 14.7618 13.1445 14.7631L10.3906 14.7652L8.59375 17.9765Z" fill="#36455A"/>
</svg>
