<svg width="32" height="40" viewBox="0 0 32 40" fill="none" xmlns="http://www.w3.org/2000/svg">
<path fill-rule="evenodd" clip-rule="evenodd" d="M5.2186 0.052191C4.02024 0.260975 2.88909 0.835366 2.01264 1.68013C1.06242 2.5961 0.522081 3.51075 0.178329 4.78528C0.0172601 5.38245 0.00924107 5.55868 0.0047351 8.60694L0 11.8026L0.180315 11.9523C0.39347 12.1294 0.713852 12.1462 0.920974 11.9912C1.06211 11.8855 1.07143 11.7277 1.1161 8.68488C1.16712 5.20598 1.18492 5.05174 1.64491 4.10173C1.97751 3.41481 2.27559 3.01062 2.84151 2.47935C3.74713 1.62903 5.01216 1.14643 6.33569 1.14643H6.9117V3.89584C6.9117 5.72959 6.94072 6.74455 6.99884 6.9434C7.19802 7.62437 7.8384 8.10619 8.54866 8.1094C9.14574 8.11213 9.46849 7.89686 10.3078 6.9362C11.042 6.09582 11.2894 5.9145 11.5173 6.04988C11.5782 6.08604 11.9769 6.50932 12.4036 6.99043C13.2941 7.99507 13.5671 8.15549 14.2823 8.09476C14.8149 8.04953 15.2667 7.74308 15.5168 7.25759C15.6935 6.9146 15.6945 6.89668 15.6945 4.02958V1.14643L22.969 1.1476C28.6313 1.14846 30.2857 1.17038 30.4344 1.24652C30.5394 1.30028 30.6854 1.46704 30.7588 1.61705C30.8844 1.87342 30.8924 2.65503 30.8924 14.5857L30.8926 27.2815L20.0117 27.3021L9.13069 27.3227L8.96313 27.4944C8.75746 27.7052 8.74394 28.084 8.93442 28.2996C9.07211 28.4555 9.16552 28.457 19.9639 28.4767L30.8544 28.4965L30.8793 28.8487C30.9127 29.3204 30.7796 29.7443 30.5368 29.94C30.3478 30.0924 30.2383 30.1008 28.4349 30.1008H26.5324L26.345 30.2929C26.1044 30.5393 26.0999 30.8788 26.3342 31.1044C26.5017 31.2656 26.5809 31.2746 27.8317 31.2746C29.0594 31.2746 29.1486 31.2842 29.0978 31.4115C29.0677 31.4868 29.0109 31.663 28.9715 31.8028L28.8997 32.0571H18.2627H7.6257L7.45959 32.2382C7.23933 32.4785 7.24796 32.8 7.48105 33.0388L7.66847 33.2309H18.2013H28.7341L28.7378 33.6614L28.7417 34.0918H20.0136C11.2993 34.0918 11.2852 34.092 11.0843 34.254C10.8321 34.4572 10.8084 34.876 11.0358 35.1091C11.1868 35.2638 11.2903 35.2656 20.0496 35.2656H28.9107L28.9846 35.4647C29.0252 35.5741 29.0798 35.7507 29.1058 35.8569L29.1531 36.0501L17.326 36.0295L5.49881 36.009L5.08472 35.7742C3.39887 34.8186 3.50663 32.3244 5.26969 31.4936L5.65155 31.3137L15.1858 31.2746L24.72 31.2354L24.866 31.0507C24.9463 30.9491 25.0119 30.8153 25.0119 30.7534C25.0119 30.538 24.7879 30.1986 24.614 30.1509C24.282 30.0597 5.95628 30.0944 5.52164 30.187C4.52155 30.4 3.52474 31.1826 3.08979 32.0963C2.15339 34.0634 3.13791 36.4281 5.16208 37.0737C5.61023 37.2166 6.06931 37.222 17.897 37.2221C29.4256 37.2222 30.1832 37.2305 30.4344 37.3591C30.8129 37.5528 30.951 37.9876 30.7603 38.3861C30.6861 38.5414 30.5394 38.7122 30.4344 38.7657C30.2846 38.842 27.6039 38.8633 18.0016 38.8641C4.31725 38.8655 5.1323 38.8978 3.95723 38.3072C2.68296 37.6668 1.72647 36.4781 1.28962 34.9917C1.16002 34.5509 1.15009 33.8827 1.1271 24.0593L1.10266 13.5965L0.90379 13.4362C0.644201 13.227 0.476181 13.2339 0.214301 13.4649L0 13.6537V24.088V34.5222L0.172296 35.1845C0.763723 37.4581 2.39351 39.1692 4.58753 39.8202L5.19332 40H17.9093H30.6253L30.938 39.8285C31.3078 39.6258 31.7056 39.1829 31.8686 38.7928C32.0535 38.3498 32.0167 37.6407 31.7844 37.1709C31.5542 36.7056 31.2698 36.4392 30.7849 36.2345C30.4701 36.1017 30.4179 36.0412 30.2534 35.6177C29.9897 34.9388 29.8919 34.3834 29.8934 33.5735C29.8949 32.7989 29.9658 32.3786 30.2063 31.72C30.3472 31.3341 30.395 31.2814 30.7182 31.1549C31.2003 30.9663 31.6937 30.4837 31.8623 30.0359C31.9931 29.6886 32 28.9687 32 15.5845C32 2.74933 31.989 1.47377 31.8759 1.21897C31.6995 0.821437 31.3024 0.382975 30.938 0.18319L30.6253 0.0117333L18.1002 0.000934072C11.2115 -0.0050133 5.41472 0.0180719 5.2186 0.052191ZM14.5489 3.91892C14.5489 6.95881 14.5521 6.93729 14.096 6.93729C13.9209 6.93729 13.7486 6.78243 13.1297 6.06913C12.1466 4.93608 11.6698 4.68809 10.8991 4.90885C10.5308 5.01441 10.259 5.25708 9.1756 6.4482C8.83078 6.82735 8.68178 6.93729 8.51292 6.93729C8.06706 6.93729 8.05728 6.87148 8.05728 3.8679V1.14643H11.3031H14.5489V3.91892ZM17.676 7.20305C16.5452 7.64777 15.7315 8.57047 15.5727 9.58787C15.545 9.76558 15.5122 9.91098 15.5 9.91098C15.4878 9.91098 15.2609 9.85401 14.9958 9.78444C13.5337 9.40068 12.0438 10.1205 11.3638 11.5393C11.1693 11.9451 11.1504 12.0613 11.1504 12.8472C11.1504 13.6646 11.1635 13.737 11.4022 14.2337C11.5406 14.5219 11.8108 14.9186 12.0027 15.1151L12.3514 15.4724L11.9568 15.8999C11.7397 16.1351 11.4695 16.53 11.3563 16.7776C11.1717 17.1812 11.1504 17.3171 11.1504 18.0903C11.1504 18.9061 11.1639 18.9808 11.3999 19.4722C11.7211 20.1405 12.3844 20.7852 12.9997 21.0269C13.5974 21.2617 14.4718 21.3148 15.0254 21.1499C15.2593 21.0802 15.4668 21.0232 15.4865 21.0232C15.5062 21.0232 15.545 21.1687 15.5727 21.3465C15.654 21.8677 15.9884 22.4947 16.4217 22.9387C17.9331 24.4873 20.4235 24.0652 21.3842 22.0976C21.5312 21.7964 21.6521 21.4754 21.6527 21.3844C21.6551 21.0577 21.7393 21.0208 22.1805 21.1533C22.4618 21.2378 22.7853 21.2659 23.2127 21.2429C25.8652 21.1003 27.1011 17.8151 25.2391 15.8562L24.8678 15.4657L25.2309 15.0936C26.4806 13.8132 26.4208 11.7745 25.0967 10.5184C24.3205 9.78209 23.2036 9.49858 22.2261 9.78969C21.7281 9.93806 21.6988 9.9217 21.6128 9.44654C21.4706 8.66055 20.7424 7.7668 19.9097 7.35596C19.5407 7.17394 19.3594 7.1381 18.7112 7.11884C18.2005 7.10374 17.8575 7.1316 17.676 7.20305ZM19.4982 8.47031C20.2919 8.87559 20.638 9.60727 20.545 10.6835C20.5002 11.2029 20.5123 11.3092 20.6331 11.4559C20.8908 11.7685 21.1062 11.75 21.6753 11.3663C22.3386 10.9191 22.637 10.8205 23.1766 10.8706C23.7279 10.9219 24.1573 11.1468 24.5101 11.5691C25.0527 12.2186 25.1325 13.0736 24.7227 13.8491C24.4979 14.2746 24.2767 14.4636 23.6073 14.8019C22.7259 15.2473 22.7431 15.6849 23.6613 16.1714C24.2835 16.501 24.6082 16.8052 24.7917 17.2301C25.1573 18.0769 25.0128 18.8637 24.3753 19.4989C23.9485 19.9242 23.5751 20.0841 23.0097 20.0841C22.556 20.0841 22.2354 19.9651 21.7279 19.6083C21.1711 19.2167 20.9262 19.184 20.6524 19.4646C20.5069 19.6137 20.4978 19.6831 20.5463 20.2791C20.5873 20.7839 20.5714 21.0165 20.4756 21.3119C20.0922 22.4948 18.8274 23.0303 17.7238 22.477C16.9298 22.079 16.5858 21.3474 16.6624 20.22C16.7017 19.6399 16.6907 19.5613 16.5516 19.4335C16.3007 19.2028 15.9814 19.2448 15.5567 19.5642C15.0305 19.9601 14.7032 20.0843 14.1886 20.0833C13.1125 20.0815 12.2638 19.2251 12.2594 18.1368C12.2557 17.2005 12.6168 16.6553 13.5638 16.1674C14.1984 15.8404 14.3126 15.682 14.2115 15.269C14.1744 15.1177 14.0299 15.0062 13.5983 14.7964C12.9986 14.5047 12.5511 14.0786 12.3649 13.622C12.1809 13.1708 12.2264 12.4283 12.4678 11.9406C13.0668 10.7304 14.5449 10.4996 15.6414 11.445C15.9617 11.7212 16.2043 11.7605 16.4458 11.5753C16.6424 11.4247 16.6494 11.3923 16.6555 10.6065C16.6628 9.6687 16.7688 9.33377 17.2066 8.86479C17.6037 8.43948 17.9971 8.27138 18.6008 8.26935C18.9885 8.26802 19.1907 8.31333 19.4982 8.47031ZM17.8711 12.2133C16.5728 12.5461 15.6142 13.6008 15.3852 14.9481C15.0104 17.1532 16.9694 19.1498 19.1345 18.7694C19.8104 18.6506 20.3446 18.3755 20.8499 17.8859C22.2187 16.5594 22.213 14.3692 20.8373 13.0361C20.0318 12.2555 18.9149 11.9458 17.8711 12.2133ZM19.606 13.5666C20.8885 14.2818 21.1195 15.9443 20.0838 17.0055C19.6653 17.4343 19.1555 17.6587 18.6019 17.6577C17.2976 17.6557 16.266 16.3623 16.5299 15.06C16.8225 13.6156 18.3575 12.8703 19.606 13.5666Z" fill="black"/>
</svg>
