<svg width="29" height="40" viewBox="0 0 29 40" fill="none" xmlns="http://www.w3.org/2000/svg">
<path fill-rule="evenodd" clip-rule="evenodd" d="M13.7312 0.156966C13.4217 0.320637 13.2395 0.552356 12.2065 2.09673C11.5613 3.06142 10.2064 5.0811 9.19551 6.58501C3.4391 15.1493 0.718553 20.4266 0.0933972 24.2413C-0.0572278 25.16 -0.0212121 26.9548 0.169335 28.0303C0.993397 32.6808 3.95215 36.5579 8.2234 38.5844C10.8231 39.8178 13.7487 40.2353 16.6218 39.783C21.6504 38.9915 26.0534 35.3795 27.8279 30.5903C28.4588 28.8878 28.6921 27.5741 28.6921 25.7256C28.6921 24.6198 28.6617 24.2615 28.5103 23.5851C27.8141 20.4755 25.7568 16.2632 22.1722 10.6084C21.6411 9.77056 19.8936 7.12782 18.2888 4.73564C16.0288 1.36681 15.3073 0.346887 15.0882 0.211575C14.6654 -0.0498313 14.1607 -0.0701438 13.7312 0.156966ZM16.9904 7.85454C19.7724 12.0501 20.2843 12.8503 21.5996 15.0616C23.8993 18.9273 25.1416 21.6123 25.7386 24.0069C25.9453 24.8358 25.9225 26.7909 25.6936 27.8652C24.8004 32.0589 21.8958 35.3271 17.95 36.5786C15.0281 37.5054 11.9486 37.2813 9.23902 35.9448C5.65582 34.1774 3.36074 30.9218 2.8666 26.9056C2.59308 24.6816 3.15676 22.5356 4.96207 18.9288C5.78379 17.287 7.13926 14.9137 8.4423 12.835C9.2823 11.495 14.3026 3.96782 14.3564 3.96782C14.3876 3.96782 15.573 5.71689 16.9904 7.85454ZM22.2582 24.6764C21.6389 24.9245 21.3621 25.3719 21.2704 26.2725C21.0577 28.362 19.8681 30.2769 18.059 31.4416C17.3678 31.8867 17.0906 32.2797 17.0906 32.8147C17.0906 33.9634 18.2158 34.6228 19.2469 34.0781C21.0061 33.1489 22.7601 31.0774 23.4966 29.0593C23.9761 27.7454 24.1967 25.8947 23.9339 25.3897C23.6209 24.7881 22.8251 24.4493 22.2582 24.6764Z" fill="#36455A"/>
</svg>
