<svg width="40" height="40" viewBox="0 0 40 40" fill="none" xmlns="http://www.w3.org/2000/svg">
<path fill-rule="evenodd" clip-rule="evenodd" d="M16.8002 0.214844C16.5868 0.41125 16.5193 0.620703 16.0139 2.65625C15.7098 3.88086 15.4281 5.00586 15.3879 5.15625C15.3203 5.40859 15.268 5.44695 14.7081 5.65383C14.3745 5.77719 13.8525 5.99195 13.548 6.13109L12.9945 6.38414L10.8137 5.07008C8.87367 3.90109 8.5943 3.75562 8.2843 3.75297L7.93578 3.75L5.84289 5.84289L3.75 7.93578L3.75297 8.2843C3.75562 8.5943 3.90109 8.87367 5.07008 10.8138L6.38422 12.9946L6.09469 13.6263C5.93539 13.9736 5.72062 14.4961 5.61742 14.7873C5.44625 15.2702 5.40555 15.3233 5.15625 15.389C5.00586 15.4287 3.88086 15.7098 2.65625 16.0139C0.620703 16.5193 0.41125 16.5868 0.214844 16.8002L0 17.0338V20V22.9662L0.214844 23.1998C0.41125 23.4132 0.620703 23.4807 2.65625 23.9861C3.88086 24.2902 5.00586 24.5713 5.15625 24.611C5.40555 24.6767 5.44625 24.7298 5.61742 25.2127C5.72062 25.5039 5.93539 26.0264 6.09469 26.3738L6.38422 27.0054L5.07008 29.1863C3.90109 31.1263 3.75562 31.4057 3.75297 31.7157L3.75 32.0642L5.84289 34.1571L7.93578 36.25L8.2843 36.247C8.5943 36.2444 8.87328 36.0991 10.8088 34.9329L12.9848 33.6217L13.9448 34.0337C14.4727 34.2604 14.9961 34.4688 15.1078 34.4968C15.2584 34.5346 15.3304 34.6215 15.386 34.8325C15.4273 34.9891 15.7098 36.1191 16.0139 37.3438C16.5193 39.3793 16.5868 39.5887 16.8002 39.7852L17.0338 40H20H22.9662L23.1998 39.7852C23.4132 39.5887 23.4807 39.3793 23.9861 37.3438C24.2902 36.1191 24.5713 34.9941 24.611 34.8438C24.6767 34.5945 24.7298 34.5537 25.2127 34.3826C25.5039 34.2794 26.0264 34.0646 26.3738 33.9053L27.0054 33.6158L29.1863 34.9299C31.1263 36.0989 31.4057 36.2444 31.7157 36.247L32.0642 36.25L34.1571 34.1571L36.25 32.0642L36.247 31.7157C36.2444 31.4057 36.0989 31.1263 34.9299 29.1863L33.6159 27.0055L33.8689 26.452C34.008 26.1475 34.2228 25.6255 34.3462 25.2919C34.553 24.732 34.5914 24.6797 34.8438 24.6121C34.9941 24.5719 36.1191 24.2902 37.3438 23.9861C39.3793 23.4807 39.5887 23.4132 39.7852 23.1998L40 22.9662V20V17.0338L39.7852 16.8002C39.5887 16.5868 39.3793 16.5193 37.3438 16.0139C36.1191 15.7098 34.9941 15.4287 34.8438 15.389C34.5945 15.3233 34.5537 15.2702 34.3826 14.7873C34.2794 14.4961 34.0646 13.9736 33.9053 13.6263L33.6158 12.9946L34.9299 10.8138C36.0989 8.87367 36.2444 8.5943 36.247 8.2843L36.25 7.93578L34.1571 5.84289L32.0642 3.75L31.7157 3.75297C31.4057 3.75562 31.1263 3.90109 29.1863 5.07008L27.0054 6.38422L26.3738 6.09469C26.0264 5.93539 25.5039 5.72062 25.2127 5.61742C24.7298 5.44625 24.6767 5.40555 24.611 5.15625C24.5713 5.00586 24.2902 3.88086 23.9861 2.65625C23.4807 0.620703 23.4132 0.41125 23.1998 0.214844L22.9662 0H20H17.0338L16.8002 0.214844ZM22.6129 3.65234C22.902 4.8018 23.1787 5.895 23.228 6.0818C23.3552 6.56336 23.5608 6.72883 24.3474 6.98242C24.7278 7.10508 25.4397 7.39477 25.9294 7.62617C26.4191 7.85758 26.9234 8.04688 27.0502 8.04688C27.2091 8.04688 27.9407 7.65039 29.4115 6.76711L31.5425 5.48727L33.0276 6.97242L34.5127 8.4575L33.2329 10.5885C32.3496 12.0593 31.9531 12.7909 31.9531 12.9498C31.9531 13.0766 32.1424 13.5809 32.3738 14.0706C32.6052 14.5603 32.8949 15.2722 33.0176 15.6526C33.1402 16.033 33.3165 16.4202 33.4091 16.5129C33.5367 16.6405 34.107 16.8127 35.7537 17.2213C36.9505 17.5183 38.044 17.792 38.1836 17.8296L38.4375 17.898V20V22.102L38.1836 22.1706C38.0439 22.2084 36.9516 22.4809 35.7563 22.7763C34.0923 23.1875 33.5428 23.3535 33.4118 23.4845C33.3177 23.5787 33.1402 23.967 33.0176 24.3474C32.8949 24.7278 32.6052 25.4397 32.3738 25.9294C32.1424 26.4191 31.9531 26.9234 31.9531 27.0502C31.9531 27.2091 32.3496 27.9407 33.2329 29.4115L34.5127 31.5425L33.0276 33.0276L31.5425 34.5127L29.4115 33.2329C27.9407 32.3496 27.2091 31.9531 27.0502 31.9531C26.9234 31.9531 26.4191 32.1424 25.9294 32.3738C25.4397 32.6052 24.7278 32.8949 24.3474 33.0176C23.5608 33.2712 23.3552 33.4366 23.228 33.9182C23.1787 34.105 22.902 35.1983 22.6129 36.3477L22.0875 38.4375H20.0009H17.9143L17.2987 36.0066C16.8357 34.1786 16.6423 33.5365 16.5188 33.4177C16.4285 33.3308 15.972 33.125 15.5042 32.9605C15.0365 32.7959 14.3242 32.5019 13.9215 32.3072C13.5188 32.1124 13.0835 31.9531 12.9543 31.9531C12.7895 31.9531 12.0837 32.335 10.5885 33.2329L8.4575 34.5127L6.97242 33.0276L5.48727 31.5425L6.76711 29.4115C7.65039 27.9407 8.04688 27.2091 8.04688 27.0502C8.04688 26.9234 7.85758 26.4191 7.62617 25.9294C7.39477 25.4397 7.10508 24.7278 6.98242 24.3474C6.85977 23.967 6.68188 23.5781 6.58703 23.4834C6.45438 23.3506 5.85625 23.1701 3.98859 22.6989L1.5625 22.0868V20V17.9132L3.98859 17.3011C5.85625 16.8299 6.45438 16.6494 6.58703 16.5166C6.68188 16.4219 6.85977 16.033 6.98242 15.6526C7.10508 15.2722 7.39477 14.5603 7.62617 14.0706C7.85758 13.5809 8.04688 13.0766 8.04688 12.9498C8.04688 12.7909 7.65039 12.0593 6.76711 10.5885L5.48727 8.4575L6.97242 6.97242L8.4575 5.48727L10.5885 6.76711C12.0837 7.665 12.7895 8.04688 12.9543 8.04688C13.0835 8.04688 13.5188 7.88758 13.9215 7.69281C14.3242 7.49813 15.0365 7.20414 15.5042 7.03953C15.972 6.875 16.4285 6.66922 16.5188 6.58227C16.6423 6.46352 16.8357 5.82141 17.2987 3.99336L17.9143 1.5625H20.0009H22.0875L22.6129 3.65234ZM18.6328 9.46383C17.3728 9.62297 15.8817 10.1255 14.7532 10.7711C9.93352 13.5287 8.04953 19.4592 10.3905 24.5045C11.3741 26.6243 13.1507 28.4455 15.2786 29.5152C15.9508 29.853 17.2278 30.2844 18.028 30.4437C18.9847 30.6344 21.047 30.634 21.9434 30.4431C23.3216 30.1496 24.9077 29.5375 25.1741 29.1963C25.393 28.9159 25.3543 28.4287 25.0934 28.1787C24.8095 27.9067 24.4223 27.9025 23.9027 28.1659C22.8968 28.6755 21.2341 29.061 20.037 29.062C17.5564 29.0641 15.1727 28.0308 13.4301 26.198C12.7041 25.4344 12.2848 24.8268 11.8337 23.8844C10.6428 21.3963 10.6428 18.6037 11.8337 16.1156C12.2848 15.1732 12.7041 14.5656 13.4301 13.802C16.1781 10.9118 20.3266 10.1307 23.8844 11.8337C24.8429 12.2925 25.4462 12.7123 26.2341 13.4688C27.0588 14.2605 27.5548 14.9173 28.0394 15.8594C29.1469 18.0126 29.3531 20.4468 28.623 22.7478C28.3143 23.7206 28.3709 24.0555 28.8802 24.2683C29.2137 24.4077 29.6126 24.3057 29.7894 24.0359C29.9548 23.7834 30.3559 22.4811 30.479 21.7969C30.6318 20.9473 30.6121 18.8802 30.4431 18.028C29.7498 14.5313 27.4132 11.637 24.147 10.2288C22.4746 9.50781 20.4777 9.23078 18.6328 9.46383ZM26.9617 25.8903C26.2845 26.2657 26.5678 27.3438 27.3438 27.3438C27.7396 27.3438 28.125 26.9621 28.125 26.5701C28.125 25.9835 27.4768 25.6048 26.9617 25.8903Z" fill="#33D799"/>
</svg>
