<svg width="40" height="40" viewBox="0 0 40 40" fill="none" xmlns="http://www.w3.org/2000/svg">
<path fill-rule="evenodd" clip-rule="evenodd" d="M4.01016 0.11273C3.58031 0.270885 3.14483 0.644861 2.93596 1.0354L2.76235 1.35992L2.72327 7.02505L2.68418 12.6902L2.09791 12.7372C1.43434 12.7904 1.25087 12.8529 0.808124 13.1768C0.198327 13.6228 -0.143037 14.6158 0.0579352 15.3592C0.305809 16.2758 1.07265 16.8733 2.09455 16.946L2.68418 16.9879L2.70419 23.2485L2.7242 29.5091L2.10901 29.5448C1.61194 29.5735 1.41292 29.6255 1.0728 29.8153C0.113044 30.3511 -0.278348 31.5965 0.211459 32.5563C0.610434 33.3382 1.14957 33.6782 2.09791 33.746L2.68418 33.7879L2.70466 36.7141C2.72483 39.592 2.72803 39.6434 2.89422 39.8202C3.06189 39.9987 3.07815 40 5.03652 40C6.12182 40 7.06673 39.9781 7.1363 39.9515C7.46805 39.8242 7.49158 39.6026 7.49158 36.6048V33.7488H19.9986H32.5057V34.456C32.5057 35.191 32.615 35.5594 32.861 35.6538C33.1066 35.748 33.3402 35.7003 33.5083 35.5215L33.6782 35.3406V18.6407C33.6782 0.352306 33.6468 1.5405 34.1372 1.28694C34.4165 1.14261 35.3989 1.11987 35.6571 1.25185C35.751 1.29983 35.8886 1.41415 35.9629 1.5058C36.09 1.66263 36.0981 2.76612 36.0997 20.2502L36.1015 38.8279H34.8898H33.6782V38.0131C33.6782 37.226 33.6713 37.1928 33.4722 37.0364C33.1378 36.7734 32.804 36.8512 32.5966 37.2404C32.5408 37.3452 32.5057 37.8067 32.5057 38.436C32.5057 39.499 32.5871 39.8465 32.861 39.9515C32.9305 39.9781 33.8754 40 34.9607 40C36.9191 40 36.9354 39.9987 37.103 39.8202C37.2692 39.6434 37.2724 39.592 37.2926 36.7141L37.3131 33.7879L37.8993 33.7409C38.2218 33.715 38.5874 33.6524 38.7118 33.6018C39.6173 33.2333 40.1949 32.0644 39.9392 31.1184C39.7999 30.6034 39.3932 30.0828 38.9224 29.8169C38.5821 29.6248 38.3881 29.5737 37.8882 29.5448L37.2731 29.5091L37.2931 23.2485L37.3131 16.9879L37.8993 16.9408C38.2218 16.915 38.5736 16.8569 38.681 16.8119C39.0905 16.6402 39.5105 16.2569 39.7363 15.8488C39.9383 15.4837 39.9708 15.3439 39.9708 14.839C39.9708 14.3342 39.9383 14.1943 39.7363 13.8292C39.5105 13.4212 39.0905 13.0378 38.681 12.8661C38.5736 12.8211 38.2218 12.7631 37.8993 12.7372L37.3131 12.6902L37.274 7.02505L37.2349 1.35992L37.0147 0.985472C36.5683 0.226189 35.9301 -0.045503 34.7173 0.00739758C33.8381 0.0457642 33.4728 0.190479 33.0552 0.665881C32.5182 1.27732 32.5471 0.92718 32.5227 7.12272L32.5008 12.7292H31.5562H30.6116L30.748 12.5211C31.3306 11.6323 31.4113 11.2812 31.4113 9.63421V8.28661L31.2053 8.12471C31.0379 7.99304 30.888 7.96272 30.4041 7.96272H29.8088L29.8086 5.52086C29.8084 3.17753 29.8013 3.06032 29.6324 2.61648C28.7835 0.385281 26.3467 -0.618033 24.271 0.409114C23.2425 0.918038 22.4158 1.97933 22.186 3.08563C22.125 3.37928 22.1037 4.2571 22.1216 5.74348L22.1483 7.9628L21.5468 7.96272C21.0232 7.96272 20.917 7.98718 20.7261 8.15174L20.5067 8.34068L20.5105 9.65593C20.5147 11.1409 20.5946 11.5333 21.045 12.2799L21.3161 12.7292H19.3272H17.3382L17.5545 12.319C17.7678 11.9143 17.7711 11.8865 17.7962 10.2692L17.8216 8.62972L18.2104 8.15948C18.7024 7.56444 19.1105 6.72804 19.267 5.99431C19.4081 5.33285 19.3703 4.15404 19.1899 3.58307C18.7728 2.26329 17.8158 1.12581 16.6374 0.549218C15.1524 -0.177403 13.6839 -0.183029 12.2208 0.53234C11.4447 0.911786 11.1794 1.13308 11.1178 1.45244C11.0791 1.65302 11.1087 1.73999 11.2705 1.90174C11.5418 2.17296 11.7931 2.15421 12.2876 1.82602C14.4744 0.374576 17.422 1.49057 18.0809 4.0194C18.4041 5.25987 18.0546 6.60598 17.1652 7.546L16.771 7.96272H14.4095H12.0481L11.6538 7.546C10.9188 6.76922 10.5685 5.79114 10.6416 4.71992C10.6651 4.37611 10.7426 3.92946 10.8138 3.72739C10.9242 3.41374 10.928 3.32833 10.8392 3.14314C10.7106 2.87489 10.3859 2.7476 10.0907 2.84965C9.60542 3.01734 9.29947 4.80478 9.55243 5.99431C9.70845 6.72819 10.1165 7.56421 10.6099 8.16096L11 8.63277L11.0241 10.2317C11.0475 11.78 11.0549 11.8449 11.2589 12.2799L11.4695 12.7292H9.48301H7.4965L7.47454 7.12272C7.45015 0.92718 7.47907 1.27732 6.94205 0.665881C6.5018 0.164693 6.16818 0.0415446 5.18559 0.0175557C4.57368 0.00263106 4.23474 0.0300581 4.01016 0.11273ZM5.86003 1.28694C6.35164 1.54105 6.31904 0.185789 6.31904 20.3844V38.8279H5.10742H3.8958L3.89752 20.2502C3.89916 2.76573 3.90721 1.66271 4.03432 1.50682C4.10866 1.41571 4.23975 1.30256 4.32573 1.25529C4.56712 1.12253 5.58261 1.14355 5.86003 1.28694ZM27.056 1.39922C27.6279 1.66794 28.0928 2.1285 28.3794 2.71009L28.6363 3.23152L28.664 4.63991C28.6791 5.41451 28.6668 6.47908 28.6365 7.00551L28.5815 7.96272H25.9774H23.3733L23.3206 7.39621C23.2916 7.08467 23.2813 6.00337 23.2976 4.99341C23.3247 3.31396 23.3417 3.12564 23.4961 2.78831C23.6929 2.35862 24.1971 1.78656 24.5967 1.53972C25.2579 1.1312 26.3525 1.06869 27.056 1.39922ZM16.6231 10.4107C16.5987 11.6606 16.5938 11.6932 16.3776 12.0194C16.2196 12.2578 16.0351 12.4082 15.7283 12.5486C15.3286 12.7315 15.2326 12.7428 14.3012 12.7174C13.3507 12.6915 13.2844 12.6788 12.9241 12.4558C12.6757 12.3019 12.4831 12.103 12.3637 11.877C12.196 11.5597 12.1817 11.4381 12.1817 10.3337V9.13482H14.4148H16.6479L16.6231 10.4107ZM30.2388 10.06C30.2388 10.9376 30.2263 11.0101 29.9973 11.4683C29.8347 11.7934 29.6387 12.0408 29.3975 12.2249C28.7664 12.7065 28.5163 12.7406 25.8073 12.7139L23.399 12.6902L22.9548 12.4722C22.4527 12.2256 22.0786 11.8406 21.8589 11.3444C21.7055 10.9975 21.5678 9.51419 21.6655 9.25976C21.7087 9.1474 22.1416 9.13482 25.9761 9.13482H30.2388V10.06ZM2.72327 14.839V15.7767H2.25308C1.82674 15.7767 1.75569 15.7518 1.49093 15.5092C1.22617 15.2666 1.19897 15.2042 1.19897 14.839C1.19897 14.4738 1.22617 14.4114 1.49093 14.1688C1.75569 13.9263 1.82674 13.9013 2.25308 13.9013H2.72327V14.839ZM32.5057 14.839V15.7767H19.9986H7.49158V14.839V13.9013H19.9986H32.5057V14.839ZM38.5063 14.1688C38.7711 14.4114 38.7983 14.4738 38.7983 14.839C38.7983 15.2042 38.7711 15.2666 38.5063 15.5092C38.2416 15.7518 38.1705 15.7767 37.7442 15.7767H37.274V14.839V13.9013H37.7442C38.1705 13.9013 38.2416 13.9263 38.5063 14.1688ZM32.5057 23.239V29.5293H30.559H28.6122L28.8345 29.119C29.0865 28.6536 29.2202 27.9636 29.2241 27.1069L29.2268 26.5209L29.5378 26.3291C30.0799 25.9949 30.4637 25.2851 30.4694 24.6065C30.4736 24.1146 30.3545 23.7402 30.0497 23.2875L29.7875 22.898L29.9732 22.7235C30.2818 22.4338 30.4948 21.7537 30.4516 21.1962C30.3581 19.9878 29.4735 19.1849 28.2276 19.1776L27.6626 19.1743L27.4586 18.765C27.0499 17.9451 26.2767 17.5232 25.3095 17.5923C24.4819 17.6516 23.8532 18.0949 23.5083 18.8624L23.3681 19.1743L22.7973 19.1784C22.0655 19.1837 21.5187 19.4142 21.0942 19.8961C20.393 20.6925 20.3684 21.9802 21.0403 22.7145C21.1987 22.8876 21.1995 22.8999 21.0656 23.1052C20.9894 23.2218 20.8367 23.5064 20.726 23.7378C20.5479 24.1101 20.5299 24.2246 20.5684 24.7341L20.6119 25.3097H19.9986H19.3853L19.4289 24.7341C19.4674 24.2246 19.4493 24.1101 19.2713 23.7378C19.1606 23.5064 19.0078 23.2218 18.9317 23.1052C18.7978 22.8999 18.7986 22.8876 18.9569 22.7145C19.2361 22.4094 19.3923 22.0154 19.4324 21.5146C19.5069 20.5877 19.0608 19.809 18.2182 19.3954C17.8538 19.2166 17.6659 19.1756 17.2058 19.175L16.6408 19.1743L16.4368 18.765C15.6432 17.1732 13.3322 17.1732 12.5386 18.765L12.3346 19.1743L11.7696 19.1776C10.8566 19.183 10.1441 19.6015 9.75645 20.3601C9.59753 20.6711 9.56345 20.8501 9.56517 21.3637C9.56744 22.023 9.71791 22.4509 10.0545 22.7552C10.2099 22.8958 10.2094 22.8987 9.94812 23.2867C9.64279 23.7402 9.52366 24.1144 9.5278 24.6065C9.53359 25.2851 9.9174 25.9949 10.4594 26.3291L10.7705 26.5209L10.7732 27.1069C10.7771 27.9636 10.9108 28.6536 11.1628 29.119L11.385 29.5293H9.4383H7.49158V23.239V16.9488H19.9986H32.5057V23.239ZM14.9984 18.8645C15.3356 19.0389 15.4862 19.3907 15.4736 19.9747C15.4643 20.4051 15.4881 20.4955 15.6557 20.663C15.9076 20.9148 16.1313 20.9045 16.5486 20.6218C17.0054 20.3124 17.3291 20.2588 17.6943 20.432C18.2577 20.6993 18.4451 21.3663 18.1008 21.8796C18.0029 22.0256 17.7485 22.233 17.5354 22.3404C17.1141 22.553 16.9694 22.7989 17.0581 23.1518C17.0968 23.3064 17.2206 23.4123 17.5372 23.5622C18.0973 23.8273 18.3143 24.1605 18.2571 24.6676C18.2242 24.9596 18.1592 25.083 17.9262 25.2964C17.6585 25.5417 17.605 25.5595 17.2284 25.5283C16.9429 25.5046 16.7381 25.4316 16.5457 25.2849C16.203 25.0237 15.8636 25.0126 15.6355 25.2554C15.4945 25.4054 15.4676 25.5231 15.474 25.9593C15.483 26.5525 15.3727 26.788 14.972 27.0322C14.5354 27.2984 14.0187 27.1845 13.6738 26.7463C13.5433 26.5805 13.5106 26.4283 13.5106 25.988C13.5106 25.5299 13.482 25.4065 13.3407 25.2561C13.1118 25.0126 12.7728 25.0233 12.4298 25.2849C12.2373 25.4316 12.0325 25.5046 11.747 25.5283C11.371 25.5594 11.3166 25.5415 11.0521 25.2991C10.6933 24.9705 10.6086 24.5419 10.816 24.1051C10.9194 23.887 11.0648 23.7598 11.4096 23.5858C11.7448 23.4167 11.8801 23.3006 11.918 23.1495C12.006 22.7989 11.8605 22.5525 11.44 22.3404C10.984 22.1105 10.6965 21.7243 10.6965 21.3418C10.6965 20.7608 11.2857 20.2407 11.8286 20.3425C11.9699 20.369 12.2391 20.4947 12.4268 20.6218C12.8437 20.9042 13.0678 20.9148 13.3187 20.6639C13.484 20.4988 13.511 20.3987 13.5133 19.9411C13.5149 19.6491 13.5612 19.3289 13.6164 19.2297C13.8602 18.7903 14.5184 18.6164 14.9984 18.8645ZM26.0202 18.8645C26.3495 19.0347 26.4867 19.356 26.4867 19.9569C26.4867 20.3998 26.5136 20.4991 26.6786 20.6639C26.9295 20.9148 27.1536 20.9042 27.5705 20.6218C28.0228 20.3154 28.3515 20.259 28.7056 20.427C29.5172 20.812 29.4717 21.8899 28.6265 22.3014C28.1653 22.5259 28.05 22.6437 28.05 22.8906C28.05 23.2536 28.1285 23.3541 28.5961 23.59C28.9326 23.7599 29.0784 23.8881 29.1813 24.1051C29.3887 24.5419 29.3039 24.9705 28.9452 25.2991C28.6806 25.5415 28.6262 25.5594 28.2502 25.5283C27.9648 25.5046 27.76 25.4316 27.5675 25.2849C27.2347 25.0312 26.9107 25.0169 26.6675 25.2452C26.511 25.3923 26.4867 25.4907 26.4867 25.977C26.4867 26.4285 26.4546 26.5797 26.3234 26.7463C25.9786 27.1845 25.4619 27.2984 25.0252 27.0322C24.6245 26.788 24.5143 26.5525 24.5232 25.9593C24.5297 25.5231 24.5027 25.4054 24.3618 25.2554C24.1336 25.0126 23.7942 25.0237 23.4516 25.2849C23.2591 25.4316 23.0543 25.5046 22.7689 25.5283C22.3929 25.5594 22.3385 25.5415 22.0739 25.2991C21.8538 25.0974 21.7761 24.9562 21.7409 24.693C21.6729 24.1866 21.8729 23.8677 22.4366 23.5832C22.7671 23.4164 22.902 23.3002 22.9398 23.1495C23.0278 22.7989 22.8824 22.5525 22.4618 22.3404C22.2487 22.233 21.9944 22.0256 21.8964 21.8796C21.5522 21.3663 21.7395 20.6993 22.303 20.432C22.6682 20.2588 22.9919 20.3124 23.4486 20.6218C23.866 20.9045 24.0896 20.9148 24.3415 20.663C24.5091 20.4955 24.533 20.4051 24.5237 19.9747C24.5112 19.4005 24.6592 19.0439 24.9829 18.8683C25.2617 18.7171 25.7317 18.7154 26.0202 18.8645ZM13.8233 20.9759C12.7017 21.324 12.0969 22.6876 12.5895 23.7575C12.9685 24.5804 13.6164 25.0069 14.4877 25.0069C15.0987 25.0069 15.559 24.8213 15.9525 24.4162C16.4002 23.9555 16.5201 23.6407 16.5201 22.9265C16.5201 22.3853 16.4913 22.2523 16.3052 21.936C15.783 21.0478 14.8073 20.6704 13.8233 20.9759ZM24.8451 20.9759C24.3936 21.116 23.9638 21.4739 23.692 21.936C23.506 22.2523 23.4771 22.3853 23.4771 22.9265C23.4771 23.6412 23.6112 23.993 24.0515 24.4331C24.4415 24.8229 24.909 25.0069 25.5095 25.0069C26.3886 25.0069 27.0295 24.5853 27.4085 23.758C27.5712 23.4028 27.5949 23.2563 27.5627 22.8061C27.4635 21.4203 26.1857 20.5597 24.8451 20.9759ZM14.9202 22.1464C15.4098 22.3995 15.5399 23.1065 15.1717 23.5128C14.432 24.3288 13.2009 23.4731 13.707 22.4948C13.9274 22.0688 14.4691 21.9132 14.9202 22.1464ZM25.9421 22.1464C26.4316 22.3995 26.5618 23.1065 26.1935 23.5128C25.4538 24.3288 24.2227 23.4731 24.7289 22.4948C24.9492 22.0688 25.4909 21.9132 25.9421 22.1464ZM21.9917 26.604C22.1828 26.6838 22.4756 26.7199 22.8368 26.7082C23.3877 26.6904 23.3897 26.691 23.4724 26.9269C23.5844 27.2464 23.8771 27.6518 24.1643 27.885C24.4538 28.12 25.0995 28.3512 25.4758 28.3546C26.2963 28.3621 27.1678 27.79 27.4954 27.0288C27.6436 26.6845 27.6796 26.6508 27.836 26.7098C28.0006 26.7718 28.0103 26.8177 28.0004 27.4841C27.9844 28.56 27.6391 29.1253 26.819 29.4178C26.3873 29.5718 13.6099 29.5718 13.1782 29.4178C12.3581 29.1253 12.0129 28.56 11.9969 27.4841C11.9869 26.8177 11.9966 26.7718 12.1612 26.7098C12.3177 26.6508 12.3537 26.6845 12.5019 27.0288C12.7293 27.5573 13.3023 28.0781 13.8278 28.2341C14.698 28.4924 15.3795 28.3155 16.0149 27.6663C16.2557 27.4204 16.4815 27.1059 16.5239 26.9576L16.6001 26.6912L17.1855 26.7026C17.5477 26.7097 17.8602 26.6723 18.0053 26.6043C18.3649 26.436 21.5889 26.4357 21.9917 26.604ZM2.72327 31.639V32.5767H2.28583C1.75671 32.5767 1.4459 32.4133 1.26987 32.0424C1.1104 31.7066 1.16801 31.2947 1.41081 31.0332C1.65016 30.7756 1.82502 30.7122 2.31288 30.7063L2.72327 30.7014V31.639ZM32.5057 31.639V32.5767H19.9986H7.49158V31.639V30.7014H19.9986H32.5057V31.639ZM38.5294 30.9826C38.8252 31.2782 38.9 31.6788 38.7274 32.0424C38.5513 32.4133 38.2406 32.5767 37.7114 32.5767H37.274V31.63V30.6832L37.7844 30.7157C38.2248 30.7437 38.3271 30.7803 38.5294 30.9826Z" fill="#33D799"/>
</svg>
